<svg xmlns="http://www.w3.org/2000/svg" viewBox="0 0 1440 320">
  <path fill="#0099ff" fill-opacity="0.7" d="M0,160L48,176C96,192,192,224,288,213.3C384,203,480,149,576,138.7C672,128,768,160,864,176C960,192,1056,192,1152,181.3C1248,171,1344,149,1392,138.7L1440,128L1440,0L1392,0C1344,0,1248,0,1152,0C1056,0,960,0,864,0C768,0,672,0,576,0C480,0,384,0,288,0C192,0,96,0,48,0L0,0Z"></path>
  <path fill="#3b82f6" fill-opacity="0.8" d="M0,224L48,208C96,192,192,160,288,160C384,160,480,192,576,208C672,224,768,224,864,202.7C960,181,1056,139,1152,128C1248,117,1344,139,1392,149.3L1440,160L1440,320L1392,320C1344,320,1248,320,1152,320C1056,320,960,320,864,320C768,320,672,320,576,320C480,320,384,320,288,320C192,320,96,320,48,320L0,320Z"></path>
</svg>
